<svg width="500" height="500" xmlns="http://www.w3.org/2000/svg"><g fill="none" fill-rule="evenodd"><rect stroke="#E0E0E0" stroke-width="5" fill="#FFF" x="2.5" y="2.5" width="495" height="495" rx="64"/><g fill-rule="nonzero"><path d="M127 271.6c.1-2-.2-4-.8-5.7a12.8 12.8 0 0 0-12.5-8.8c-2.9 0-5.5.4-8 1.5-2.4 1-4.5 2.4-6.5 4.1-2 1.8-3.6 3.8-5.2 6.1a46.7 46.7 0 0 0-6.6 15.4c-.7 2.8-1.3 5.5-1.6 8a123 123 0 0 0 17.1-2.2c5.1-1.1 9.4-2.5 13-4.2 3.5-1.7 6.2-3.7 8.1-6.1 2-2.4 3-5 3-8.1Zm10.8 53.2a19 19 0 0 1 2.2 1.4l.9 1c.2.3.4.6.3.9 0 .2 0 .4-.2.5a58 58 0 0 1-17.6 15.4 42 42 0 0 1-19.2 5 32.8 32.8 0 0 1-26-12.1c-3-3.8-5.4-8.2-7-13.3-1.7-5-2.4-10.5-2.2-16.3A66.1 66.1 0 0 1 94 258a42.5 42.5 0 0 1 35.8-7.4c3 .9 5.6 2.2 7.8 3.8a16.5 16.5 0 0 1 7 14.4c-.3 4.6-2 8.5-5 11.9a37.3 37.3 0 0 1-12.6 8.5 90.8 90.8 0 0 1-18.7 5.7c-7.2 1.4-14.9 2.5-23.2 3.2v1.1c-.2 5.7.3 10.9 1.6 15.6 1.3 4.6 3.2 8.7 5.6 12 2.5 3.3 5.4 6 8.7 7.8 3.4 1.9 7.1 2.8 11.1 2.8s8.2-1 12.5-3c4.3-2 8.7-5.1 13.2-9.6ZM210.2 277.2c1.3-2.4 2-4.9 2-7.4a13 13 0 0 0-.6-4.9 11 11 0 0 0-2.6-4 12.3 12.3 0 0 0-4.4-2.8 23.2 23.2 0 0 0-23 5.8c-2.3 2.1-4.1 4.6-5.7 7.4a50.5 50.5 0 0 0-6.4 18.7c-.6 3.4-1 6.6-1 9.8-.2 5.7.3 11 1.6 15.6 1.4 4.7 3.2 8.7 5.6 12 2.5 3.3 5.3 5.8 8.6 7.6 3.3 1.9 6.9 2.8 10.7 2.8 4 0 8.2-1 12.4-3.2 4.2-2 8.4-5.5 12.4-10.2a20 20 0 0 1 2.2 1.4l.9 1c.2.3.4.5.3.8v.3l-.2.3c-4.5 7-9.9 12.2-16 15.6a40.2 40.2 0 0 1-30.8 3.6 31.1 31.1 0 0 1-15.5-11.4 39.6 39.6 0 0 1-7.5-18.3 66.3 66.3 0 0 1 6.3-37.7c2.2-4.3 4.7-8.4 7.6-12.1 3-3.7 6.3-7 10-9.8 3.6-2.7 7.7-4.9 12-6.5a40.5 40.5 0 0 1 24-1c3.1.9 5.8 2.1 8 3.7 2.2 1.7 4 3.6 5.2 5.9a14.7 14.7 0 0 1 .7 12.4 10.3 10.3 0 0 1-6 5.8c-1.4.6-3 .8-4.5.8a15.8 15.8 0 0 1-6-1.2l-.3-.8ZM256.8 309.8c3.8-11.2 7.7-20.8 11.8-28.6 4.1-7.8 8.2-14.2 12.3-19 4.2-5 8.2-8.5 12.3-10.6a24 24 0 0 1 11.4-3.3c2.4 0 4.8.5 7 1.4 2.4 1 4.3 2.5 6 4.5 1.8 2 3.1 4.6 4 7.7 1 3.2 1.4 7 1.3 11.4l-.4 5.4a729.7 729.7 0 0 1-3 25.8A527.4 527.4 0 0 0 318 320c0 3.5 0 6.3.2 8.5s.6 3.9 1.2 5.1a5.1 5.1 0 0 0 2.6 2.6c1 .5 2.4.8 4 .8 2.3 0 4.7-.4 7.2-1 2.5-.7 5-1.6 7.6-2.7l1.2 3.5a82 82 0 0 1-22 10.3c-2.8.7-5.2 1-7.2 1-2.4 0-4.2-.7-5.6-2-1.3-1.2-2.3-3-2.9-5.2a34 34 0 0 1-1-7.8 146.3 146.3 0 0 1 .9-22.4A780 780 0 0 1 307 287c.4-3.4.6-6 .7-8.1.2-5-.7-8.7-2.5-11.2a8.9 8.9 0 0 0-7.6-3.7 14 14 0 0 0-8.1 3.3c-3 2.2-5.9 5.2-8.8 9-3 3.8-5.9 8.3-8.6 13.5a140.7 140.7 0 0 0-13.5 35.7c-1.6 6.6-2.7 13.2-3.3 19.8l-14.2 1.7h-1l1.5-17.5 1.7-20.1a10913 10913 0 0 1 6.2-70.1 21314.4 21314.4 0 0 0 4.2-47.5l1.9-21.8c0-1 .4-2 1-2.8.6-.7 1.4-1.4 2.3-1.8.9-.5 2-.8 3.1-1 1.2-.3 2.4-.4 3.6-.4 2.7 0 5.4.7 8.3 2.1a3747.7 3747.7 0 0 0-10.8 80.4 1589.2 1589.2 0 0 0-5 45.7l-1.7 17.6h.4ZM365.4 301a61.3 61.3 0 0 0 2.2 18.1c.9 2.9 2 5.6 3.3 8 1.4 2.6 3 4.7 4.9 6.6a19.8 19.8 0 0 0 23.1 3.9c2.5-1.4 4.7-3.3 6.6-5.6 1.8-2.3 3.4-4.9 4.7-7.8a63.5 63.5 0 0 0 5-18.6 60.5 60.5 0 0 0-1.5-26.6c-1-2.8-2-5.5-3.4-8-1.3-2.5-3-4.6-4.9-6.5a19.8 19.8 0 0 0-23.1-3.9 22 22 0 0 0-6.5 5.6 33 33 0 0 0-4.7 7.8 63.1 63.1 0 0 0-5 18.5c-.4 3.2-.6 6-.7 8.6Zm-16 6.3a69.6 69.6 0 0 1 23-48.9c3.7-2.8 7.6-5 12-6.7 4.3-1.6 9-2.4 14-2.4a30 30 0 0 1 25.6 13c2.8 3.9 4.9 8.3 6.2 13.3 1.4 5 2 10.1 1.8 15.3a69.2 69.2 0 0 1-23.3 49c-3.6 2.8-7.5 5-11.9 6.6-4.3 1.7-9 2.5-14 2.5a30 30 0 0 1-25.5-13c-2.8-4-4.9-8.4-6.2-13.4-1.4-5-2-10-1.8-15.3Z" fill="#574939"/><path d="M227.9 117.1c10.5 11 21.2 38.7 21.2 38.7-21.4 8.5-58.5 2.3-63-33.8-6.2-48-7.8-53-14.3-73 0 0 59.9 18.9 69.9 24 9.7 5 48 27.7 14.7 79.5-.8 1-11.4-24.3-28.5-35.4Z" fill="#C2CD23"/><path d="M219.6 190.6c9 2.4 23.4 13.3 23.4 13.3-8.2 11.2-29.4 19.9-43.4 2.7-18.8-23-21.2-25-31-33.3 0 0 37-9.4 43.7-10 6.7-.5 33.8-1 33.4 36.5 0 .8-13.8-8.9-26.1-9.2Z" fill="#0079C1"/><path d="M302.7 124.1c-8.4 5-19.9 20.4-19.9 20.4 11.7 9 35.6 11.6 44.8-10 12.3-28.8 14.2-31.6 21.7-42.9 0 0-40.2 1.2-47.3 2.6-6.8 1.4-34.5 8.8-23 47 .2.7 11.2-13.2 23.7-17Z" fill="#D31145"/><path d="M316 198.8c-12.2 7.7-39.9 12.5-39.9 12.5-4-21.3 8.6-54.4 42.9-52 45.8 3.2 50.7 2.6 70.4.3 0 0-28.4 51.8-35 60-6.3 8.1-34.4 39.4-76.5-1-1-.8 24.6-6 38-19.8Z" fill="#6F2A8E"/><g fill="#574939"><path d="M78.5 366.6V394h15.3c1.2 0 2.1.3 2.8 1a3 3 0 0 1 1 2.2c0 1-.4 1.7-1 2.2-.7.6-1.6.9-2.8.9H75.6c-1.6 0-2.8-.4-3.5-1.1-.7-.7-1.1-2-1.1-3.6v-28.9c0-1.5.3-2.7 1-3.4.7-.8 1.6-1.2 2.7-1.2 1.2 0 2 .4 2.8 1.1.7.8 1 2 1 3.5Zm63.2 29.6-1.7-4.6h-15.2l-1.8 4.7c-.7 1.8-1.3 3-1.8 3.7-.4.7-1.2 1-2.4 1-1 0-1.8-.3-2.5-1s-1-1.5-1-2.4c0-.5 0-1 .2-1.5.1-.6.4-1.3.8-2.3l9.5-24a2942.3 2942.3 0 0 1 2.2-4.8 5 5 0 0 1 1.8-1.6c.7-.4 1.5-.6 2.6-.6 1 0 1.9.2 2.6.6a5 5 0 0 1 1.7 1.5 117.6 117.6 0 0 1 2.2 4.9l9.8 23.8c.7 1.8 1.1 3.2 1.1 4 0 .8-.4 1.6-1 2.3-.8.7-1.7 1.1-2.7 1.1-.6 0-1-.1-1.5-.3-.4-.2-.8-.5-1-.9a97 97 0 0 1-1.8-3.6Zm-15-10.3H138l-5.6-15.2-5.5 15.2Zm77 2.8c0 1.2-.3 2.5-1 3.8-.5 1.4-1.5 2.7-2.7 4a14.3 14.3 0 0 1-5 3.3 18 18 0 0 1-6.8 1.2c-2 0-3.8-.2-5.5-.6a15 15 0 0 1-8.1-4.8 18.3 18.3 0 0 1-4.2-8.5 24.5 24.5 0 0 1 .8-13.1 17 17 0 0 1 16.8-11.2c3 0 5.8.6 8.2 1.8 2.3 1.2 4.2 2.7 5.5 4.4 1.2 1.8 1.9 3.4 1.9 5 0 .9-.3 1.6-1 2.3a3 3 0 0 1-2.2 1c-1 0-1.7-.3-2.2-.7-.5-.5-1-1.3-1.7-2.4-1-1.8-2.1-3.2-3.5-4-1.3-1-3-1.4-5-1.4a9.1 9.1 0 0 0-7.5 3.5 15.6 15.6 0 0 0-2.8 10c0 2.8.4 5.2 1.2 7 .8 2 2 3.4 3.5 4.3 1.5 1 3.3 1.5 5.4 1.5 2.2 0 4-.6 5.5-1.6 1.6-1.1 2.7-2.7 3.5-4.7.3-1 .7-1.8 1.2-2.4.5-.6 1.3-1 2.3-1a3.3 3.3 0 0 1 3.4 3.3Zm40-25.9c4 0 7.3.8 10.1 2.3 2.8 1.6 5 3.8 6.4 6.7a24.2 24.2 0 0 1 1 17.9c-.8 2.3-2 4.3-3.6 6-1.6 1.7-3.5 3-5.8 4-2.3.8-5 1.3-7.9 1.3-3 0-5.6-.5-8-1.4a15.7 15.7 0 0 1-9.3-10 24.2 24.2 0 0 1 0-15.6 15.7 15.7 0 0 1 9.4-9.9c2.3-.8 4.9-1.3 7.7-1.3Zm11 19c0-2.7-.5-5-1.4-7a9.8 9.8 0 0 0-9.6-6c-1.5 0-2.9.2-4.2.8a9.3 9.3 0 0 0-3.3 2.5c-1 1-1.7 2.4-2.3 4-.5 1.7-.8 3.6-.8 5.7s.3 4 .8 5.7c.6 1.7 1.3 3.1 2.3 4.2a9.6 9.6 0 0 0 7.6 3.4 10 10 0 0 0 9.3-5.9c1-2 1.5-4.5 1.5-7.4Zm42.4 12.9-6-24v26c0 1.4-.4 2.5-1 3.2-.6.7-1.5 1.1-2.5 1.1s-2-.4-2.6-1c-.6-.8-1-1.9-1-3.3V367c0-1.7.5-2.8 1.4-3.3.8-.6 2-.9 3.4-.9h2.4a9 9 0 0 1 3 .4c.7.3 1.2.7 1.5 1.4.3.6.6 1.7 1 3.2l5.5 20.6 5.4-20.6 1-3.2c.4-.7.8-1.1 1.5-1.4a9 9 0 0 1 3-.4h2.4c1.5 0 2.6.3 3.5.9.8.5 1.3 1.6 1.3 3.3v29.7c0 1.4-.4 2.5-1 3.2-.6.7-1.5 1.1-2.6 1.1-1 0-1.8-.4-2.5-1-.6-.8-1-1.9-1-3.3v-26l-6 24c-.3 1.6-.7 2.7-.9 3.4-.2.7-.7 1.4-1.4 2a4 4 0 0 1-2.7.9 4.1 4.1 0 0 1-3.7-2c-.4-.6-.6-1.3-.8-2l-.6-2.3Zm63.4 5.5H349c-1.7 0-2.8-.4-3.6-1.1-.7-.8-1-2-1-3.6v-28c0-1.7.3-2.9 1-3.6.8-.7 2-1 3.6-1h12.2c1.8 0 3.4 0 4.7.2a10 10 0 0 1 6 3.3 8.8 8.8 0 0 1 2 5.8c0 3.7-1.8 6.5-5.6 8.2 5 1.6 7.4 4.6 7.4 9.1 0 2.1-.5 4-1.6 5.7-1 1.7-2.5 2.9-4.4 3.7-1.1.5-2.4.8-4 1-1.4.2-3.2.3-5.2.3Zm-.5-16.6h-8v10.9h8.2c5.2 0 7.8-1.8 7.8-5.5 0-2-.7-3.3-2-4.1-1.4-.9-3.4-1.3-6-1.3Zm-8-15.1v9.7h7c2 0 3.4-.2 4.4-.6 1-.3 1.9-1 2.4-2 .5-.7.7-1.5.7-2.4 0-1.9-.7-3.2-2-3.8-1.4-.6-3.5-.9-6.3-.9H352Zm71.8.2h-17.1v9.1h15.7c1.2 0 2 .3 2.6.8.6.5.9 1.2.9 2 0 1-.3 1.6-.8 2.1-.6.6-1.5.8-2.7.8h-15.7v10.7h17.7c1.2 0 2 .2 2.7.8.6.6.9 1.3.9 2.2 0 .9-.3 1.6-1 2.2-.5.5-1.4.8-2.6.8h-20.7c-1.6 0-2.8-.4-3.6-1.1-.7-.7-1-2-1-3.6v-28c0-1.1.1-2 .4-2.7a3 3 0 0 1 1.6-1.5c.7-.3 1.5-.5 2.6-.5h20.1c1.2 0 2.1.3 2.7.8.6.6.9 1.3.9 2.1 0 .9-.3 1.6-.9 2.1-.6.6-1.5.9-2.7.9Z"/></g><g fill="#574939"><path d="m94.5 446.2-1.8-4.6H77.6l-1.8 4.7c-.7 1.9-1.3 3-1.8 3.7-.5.7-1.3 1-2.4 1-1 0-1.8-.3-2.5-1s-1.1-1.5-1.1-2.4c0-.5 0-1 .3-1.5l.8-2.2 9.5-24a2921.2 2921.2 0 0 1 2.2-4.8 5 5 0 0 1 1.7-1.5c.7-.4 1.6-.6 2.6-.6s2 .2 2.6.6a5 5 0 0 1 1.7 1.5c.5.6.8 1.3 1.1 2l1.2 2.8 9.7 23.8c.8 1.8 1.1 3 1.1 3.9 0 .8-.3 1.6-1 2.3-.8.7-1.6 1.1-2.6 1.1-.6 0-1.1-.1-1.6-.3-.4-.2-.7-.5-1-.9l-1-1.6-.8-2Zm-15-10.2h11.2L85 420.8 79.6 436Zm56.8 3.3a10.7 10.7 0 0 1-6.9 10.2c-2.2 1-4.9 1.5-8 1.5-3.7 0-6.7-.7-9.1-2a12 12 0 0 1-4.2-4 8.9 8.9 0 0 1-1.5-4.8c0-1 .3-1.7 1-2.3.5-.7 1.4-1 2.3-1a3 3 0 0 1 2 .8c.6.5 1.1 1.2 1.5 2.2l1.5 3c.6.7 1.4 1.4 2.4 1.9s2.3.7 4 .7a9 9 0 0 0 5.4-1.5c1.4-1 2-2.3 2-3.9a4 4 0 0 0-1-3 7.3 7.3 0 0 0-3-1.7l-4.8-1.2c-2.7-.7-5-1.4-6.7-2.2-1.8-.8-3.3-2-4.3-3.4a8.7 8.7 0 0 1-1.6-5.3 9 9 0 0 1 1.6-5.4c1.2-1.6 2.8-2.8 5-3.6 2-.9 4.5-1.3 7.4-1.3 2.3 0 4.3.3 6 .8 1.6.6 3 1.3 4.1 2.3 1.2.9 2 1.9 2.5 2.9s.7 2 .7 3c0 .9-.3 1.7-1 2.4a3 3 0 0 1-2.3 1c-.9 0-1.5-.2-2-.6-.4-.4-1-1.1-1.5-2.1a9.5 9.5 0 0 0-2.4-3.2c-1-.8-2.5-1.2-4.6-1.2a8 8 0 0 0-4.7 1.3c-1.2.8-1.8 1.8-1.8 3 0 .7.2 1.4.6 2 .4.4 1 .9 1.7 1.3l2.1.9 3.7 1c2 .4 4 1 5.7 1.5 1.7.6 3.2 1.3 4.4 2.2a8.8 8.8 0 0 1 3.8 7.8Zm34.5 0a10.7 10.7 0 0 1-6.9 10.2c-2.2 1-4.9 1.5-8 1.5-3.6 0-6.7-.7-9-2a12 12 0 0 1-4.2-4 8.9 8.9 0 0 1-1.6-4.8c0-1 .3-1.7 1-2.3.6-.7 1.4-1 2.4-1a3 3 0 0 1 2 .8c.6.5 1 1.2 1.4 2.2.5 1.2 1 2.1 1.6 3 .5.7 1.3 1.4 2.3 1.9 1 .5 2.3.7 4 .7a9 9 0 0 0 5.4-1.5c1.4-1 2.1-2.3 2.1-3.9a4 4 0 0 0-1.1-3 7.3 7.3 0 0 0-3-1.7c-1.1-.4-2.7-.8-4.7-1.2-2.7-.7-5-1.4-6.8-2.2-1.8-.8-3.2-2-4.3-3.4a8.7 8.7 0 0 1-1.6-5.3 9 9 0 0 1 1.7-5.4c1.1-1.6 2.7-2.8 4.9-3.6 2-.9 4.6-1.3 7.5-1.3 2.2 0 4.2.3 6 .8 1.6.6 3 1.3 4 2.3 1.2.9 2 1.9 2.5 2.9s.8 2 .8 3c0 .9-.4 1.7-1 2.4a3 3 0 0 1-2.4 1c-.8 0-1.5-.2-2-.6-.4-.4-.9-1.1-1.4-2.1a9.5 9.5 0 0 0-2.5-3.2c-1-.8-2.4-1.2-4.6-1.2a8 8 0 0 0-4.7 1.3c-1.2.8-1.8 1.8-1.8 3 0 .7.2 1.4.6 2 .4.4 1 .9 1.7 1.3s1.4.7 2.2.9l3.6 1c2.1.4 4 1 5.7 1.5 1.7.6 3.2 1.3 4.4 2.2a8.8 8.8 0 0 1 3.8 7.8Zm22.8-26.3c3.8 0 7 .8 9.8 2.3a15 15 0 0 1 6.2 6.6c1.5 2.9 2.2 6.2 2.2 10 0 2.9-.4 5.5-1.2 7.8-.8 2.3-2 4.3-3.5 6-1.5 1.7-3.4 3-5.7 4-2.2.8-4.8 1.3-7.7 1.3-2.9 0-5.5-.5-7.7-1.4a15.4 15.4 0 0 1-9.2-10 24.5 24.5 0 0 1 0-15.5c.9-2.3 2-4.3 3.6-6 1.5-1.6 3.4-3 5.6-3.8 2.2-.9 4.7-1.3 7.6-1.3Zm10.6 18.9c0-2.7-.5-5-1.3-7a9.7 9.7 0 0 0-9.3-6c-1.5 0-3 .3-4.2.9a9 9 0 0 0-3.2 2.4c-1 1-1.7 2.4-2.2 4.1-.5 1.7-.8 3.5-.8 5.6 0 2 .3 4 .8 5.7.5 1.7 1.3 3 2.2 4.2a9.4 9.4 0 0 0 7.5 3.3c1.9 0 3.6-.5 5.2-1.4 1.6-1 3-2.5 3.9-4.5 1-2 1.4-4.4 1.4-7.3Zm46.1 6.9c0 1.1-.3 2.4-.9 3.8a13.7 13.7 0 0 1-7.5 7.2c-1.9.8-4.1 1.2-6.7 1.2-2 0-3.7-.2-5.3-.6a14.6 14.6 0 0 1-8-4.8 18.2 18.2 0 0 1-4-8.4 24.8 24.8 0 0 1 .8-13.1 16.2 16.2 0 0 1 9.4-9.8c2.1-.9 4.4-1.3 6.9-1.3 3 0 5.6.6 8 1.8 2.3 1.2 4.1 2.6 5.3 4.4a8.7 8.7 0 0 1 2 5c0 .8-.4 1.5-1 2.2-.6.6-1.3 1-2.2 1-1 0-1.7-.3-2.1-.7-.5-.5-1-1.2-1.6-2.3-1-1.9-2.2-3.2-3.5-4.1-1.3-1-3-1.4-4.9-1.4-3 0-5.5 1.2-7.3 3.5a15.7 15.7 0 0 0-2.7 9.9c0 2.9.4 5.2 1.2 7.1a9 9 0 0 0 3.4 4.3c1.5 1 3.2 1.4 5.2 1.4 2.1 0 4-.5 5.4-1.6 1.5-1 2.7-2.6 3.4-4.7a8 8 0 0 1 1.2-2.4c.5-.6 1.2-.9 2.3-.9.9 0 1.6.3 2.3 1a3 3 0 0 1 1 2.3Zm7.2 7.7v-29c0-1.5.4-2.6 1-3.4.7-.7 1.6-1.1 2.6-1.1 1.1 0 2 .4 2.7 1.1.6.8 1 1.9 1 3.4v29c0 1.5-.4 2.6-1 3.4-.7.7-1.6 1.1-2.7 1.1-1 0-1.9-.4-2.6-1.1-.6-.8-1-2-1-3.4Zm30-33.5a5 5 0 0 1 4.3 2.1c.5.6.8 1.3 1.1 2l1.2 2.8 9.7 23.8c.7 1.8 1.1 3 1.1 3.9 0 .8-.3 1.6-1 2.3-.8.7-1.6 1.1-2.7 1.1-.6 0-1-.1-1.5-.3-.4-.2-.8-.5-1-.9l-1-1.6-.8-2-1.8-4.6H280l-1.8 4.7c-.7 1.9-1.3 3-1.8 3.7-.5.7-1.3 1-2.4 1-1 0-1.8-.3-2.5-1s-1.1-1.5-1.1-2.4c0-.5 0-1 .2-1.5l.9-2.2 9.5-24a2921.2 2921.2 0 0 1 2.2-4.8 5 5 0 0 1 1.7-1.5c.7-.4 1.6-.6 2.6-.6Zm42.5 0c1.3 0 2.3.3 2.9.9a3 3 0 0 1 1 2.2c0 1-.4 1.7-1 2.3-.7.6-1.6.8-2.9.8H322v27.2c0 1.6-.4 2.7-1 3.5-.7.7-1.6 1.1-2.7 1.1s-2-.4-2.7-1.1c-.7-.8-1-2-1-3.5v-27.2h-8.2c-1.3 0-2.2-.2-2.9-.8a3 3 0 0 1-.9-2.3c0-1 .3-1.7 1-2.3.6-.5 1.6-.8 2.8-.8H330Zm-42.5 7.8-5.6 15.2h11.2l-5.6-15.2Zm51.2 25.7v-29c0-1.5.3-2.6 1-3.4.6-.7 1.5-1.1 2.5-1.1 1.1 0 2 .4 2.7 1.1.6.8 1 1.9 1 3.4v29c0 1.5-.4 2.6-1 3.4-.7.7-1.6 1.1-2.7 1.1-1 0-1.9-.4-2.5-1.1-.7-.8-1-2-1-3.4ZM371 413c3.8 0 7 .8 9.8 2.3a15 15 0 0 1 6.2 6.6 24.5 24.5 0 0 1 1 17.8c-.8 2.3-2 4.3-3.5 6-1.5 1.7-3.4 3-5.7 4-2.2.8-4.8 1.3-7.7 1.3-2.9 0-5.5-.5-7.7-1.4a15.4 15.4 0 0 1-9.2-10 24.5 24.5 0 0 1 0-15.5c.8-2.3 2-4.3 3.6-6 1.5-1.6 3.4-3 5.6-3.8 2.2-.9 4.7-1.3 7.6-1.3Zm10.6 18.9c0-2.7-.5-5-1.3-7a9.7 9.7 0 0 0-9.3-6c-1.5 0-3 .3-4.2.9a9 9 0 0 0-3.3 2.4c-.9 1-1.6 2.4-2.1 4.1-.5 1.7-.8 3.5-.8 5.6 0 2 .3 4 .8 5.7.5 1.7 1.3 3 2.2 4.2a9.4 9.4 0 0 0 7.5 3.3c1.9 0 3.6-.5 5.2-1.4 1.6-1 3-2.5 3.9-4.5.9-2 1.4-4.4 1.4-7.3Zm23.8-14.4L420 439v-21.8c0-1.5.3-2.5 1-3.2.6-.7 1.4-1.1 2.5-1.1 1 0 2 .4 2.6 1 .6.8.9 1.8.9 3.3v28.9c0 3.2-1.4 4.8-4 4.8-.8 0-1.4-.1-2-.3l-1.5-.9a101.9 101.9 0 0 1-2.6-3.2l-14.1-21.4v21.5c0 1.4-.4 2.5-1 3.2-.7.7-1.5 1.1-2.6 1.1-1 0-2-.4-2.6-1-.6-.8-1-1.9-1-3.3v-28.3c0-1.2.2-2.2.5-2.8a4.4 4.4 0 0 1 4-2.6c.7 0 1.3.1 1.8.3.5.2.9.5 1.2.9l1.2 1.4 1.2 1.9Z"/></g></g></g></svg>