<?xml version="1.0" encoding="UTF-8"?>
<svg width="500px" height="500px" viewBox="0 0 500 500" version="1.1" xmlns="http://www.w3.org/2000/svg" xmlns:xlink="http://www.w3.org/1999/xlink">
    <title>logo-food-rescue</title>
    <g id="logo-food-rescue" stroke="none" stroke-width="1" fill="none" fill-rule="evenodd">
        <g id="Group" transform="translate(0.000000, 0.445456)" fill-rule="nonzero">
            <g id="Echo-Energy-Logo" transform="translate(0.487988, 0.000000)">
                <path d="M78.4002069,303.658023 C78.4959623,300.879522 78.1170154,298.286118 77.2654034,295.869677 C76.4097168,293.455269 75.18527,291.358172 73.5859509,289.578386 C71.9845945,287.798599 70.0531875,286.391042 67.79173,285.363851 C65.5302725,284.340728 63.0671174,283.826116 60.4063395,283.826116 C56.476293,283.826116 52.8844465,284.519724 49.6308,285.90694 C46.3771534,287.298225 43.439296,289.183782 40.8151903,291.569712 C38.193122,293.955643 35.8583199,296.728042 33.8128214,299.901147 C31.7673229,303.070184 30.0009412,306.436524 28.5157137,309.998131 C27.0325235,313.561772 25.7999273,317.212877 24.8219997,320.955513 C23.8440722,324.69815 23.1126638,328.351289 22.6257374,331.910862 C31.2315001,331.308786 38.9652773,330.269391 45.8189198,328.78454 C52.6745995,327.30986 58.4851192,325.408031 63.2525162,323.083121 C68.0178758,320.760245 71.6993656,317.981744 74.2929111,314.75372 C76.8844191,311.523662 78.2535177,307.82374 78.4002069,303.658023 Z M92.90817,376.377049 C93.2647061,376.556044 93.7231096,376.814368 94.2874553,377.145916 C94.8497637,377.479499 95.3672504,377.839525 95.837878,378.232095 C96.3064683,378.626699 96.7159755,379.049779 97.0623248,379.499303 C97.4107115,379.952894 97.5757368,380.390213 97.559438,380.813294 C97.553326,381.057379 97.4534959,381.297396 97.2640224,381.539447 C93.7129229,386.246219 89.9254909,390.338711 85.905801,393.806752 C81.8820365,397.28293 77.729919,400.181439 73.4453738,402.500247 C69.1608286,404.823122 64.8233123,406.545956 60.4307876,407.662645 C56.0382629,408.779333 51.7231575,409.340729 47.4915834,409.340729 C40.2345458,409.340729 33.6335347,407.857913 27.6905873,404.90245 C21.7476399,401.944953 16.688902,397.901278 12.5143737,392.765323 C8.33984535,387.637504 5.14935663,381.614706 2.94087018,374.700998 C0.734421086,367.789324 -0.229245048,360.37931 0.0457970834,352.468922 C0.271942836,346.01084 1.20708608,339.550723 2.85530152,333.088572 C4.50147961,326.632524 6.77312388,320.473446 9.66819698,314.613371 C12.5632701,308.759399 16.034913,303.312235 20.0831257,298.269846 C24.1272637,293.231525 28.680739,288.852233 33.7394768,285.136038 C38.7982147,281.425946 44.3133188,278.513199 50.2807143,276.399829 C56.2521846,274.288494 62.620938,273.230792 69.3951238,273.230792 C73.8691424,273.230792 78.1109033,273.834903 82.1224437,275.041089 C86.1299094,276.24931 89.6219258,277.986382 92.5984929,280.246202 C95.5709853,282.514159 97.9078247,285.304864 99.6069739,288.62442 C101.304086,291.948044 102.078278,295.719158 101.931589,299.943862 C101.71563,306.102941 99.5173305,311.476879 95.3346528,316.063643 C91.151975,320.654475 85.4698083,324.549665 78.2820406,327.745145 C71.0942729,330.946726 62.6759464,333.527925 53.0229862,335.486708 C43.3700261,337.451592 32.9612095,338.916102 21.800611,339.880238 L21.7476399,341.422041 C21.4787098,349.149366 22.2121555,356.211559 23.954089,362.610654 C25.6939852,369.011783 28.2101113,374.491492 31.4983928,379.049779 C34.7846369,383.608067 38.712646,387.151368 43.2803828,389.687818 C47.8460821,392.224268 52.8212887,393.49351 58.2039651,393.49351 C63.6457246,393.49351 69.2728828,392.149008 75.0813652,389.460005 C80.8898475,386.779138 86.8307575,382.414084 92.90817,376.377049 Z" id="Shape" fill="#574939"></path>
                <path d="M193.049991,311.446368 C194.859157,308.126812 195.824861,304.746235 195.945064,301.302602 C196.026558,298.949216 195.696508,296.728042 194.952875,294.649252 C194.21128,292.562325 193.049991,290.723551 191.473083,289.120726 C189.898212,287.524003 187.90161,286.256795 185.483277,285.319102 C183.066981,284.383443 180.226916,283.917647 176.961045,283.917647 C172.244582,283.917647 167.982448,284.747537 164.17668,286.405281 C160.366837,288.069127 156.976688,290.345219 154.004195,293.243729 C151.029666,296.140204 148.464643,299.492305 146.305053,303.295963 C144.145463,307.097587 142.340372,311.173807 140.887742,315.520554 C139.437149,319.867301 138.326794,324.321853 137.564825,328.88014 C136.800819,333.436394 136.342416,337.888911 136.189615,342.235658 C135.918647,350.024004 136.680616,357.102469 138.485707,363.473088 C140.288761,369.843707 142.835447,375.278666 146.125766,379.771864 C149.414048,384.269131 153.313534,387.757512 157.822188,390.230907 C162.330841,392.70837 167.185844,393.945067 172.387196,393.945067 C177.890076,393.945067 183.517235,392.511068 189.272746,389.643069 C195.02622,386.779138 200.677826,382.143557 206.223491,375.742428 C206.580027,375.923457 207.03843,376.181781 207.602776,376.513329 C208.165084,376.842844 208.678496,377.22321 209.151161,377.644257 C209.619752,378.069371 210.027221,378.490418 210.375608,378.913499 C210.721958,379.336579 210.891057,379.727115 210.878833,380.089175 C210.868647,380.331226 210.831974,380.481745 210.772891,380.540732 L210.577306,380.904825 C204.37969,390.38346 197.08598,397.478198 188.698214,402.18497 C180.30841,406.893777 171.217758,409.249197 161.422184,409.249197 C156.09859,409.249197 151.227289,408.508806 146.804204,407.030058 C142.379081,405.549275 138.402176,403.500995 134.8633,400.870979 C131.3285,398.249099 128.248028,395.137016 125.621885,391.546932 C122.995742,387.954814 120.834114,384.061658 119.137003,379.861362 C117.437853,375.667168 116.201182,371.261434 115.42699,366.640091 C114.65076,362.02485 114.347195,357.358758 114.510183,352.649952 C114.732254,346.311878 115.649061,339.957531 117.262641,333.586913 C118.876222,327.220362 121.131567,321.091794 124.028678,315.201209 C126.923751,309.318761 130.38317,303.826848 134.400822,298.721403 C138.418475,293.622061 142.929166,289.183782 147.92882,285.410634 C152.926438,281.637487 158.398757,278.67999 164.339667,276.53611 C170.27854,274.394264 176.573949,273.322324 183.227931,273.322324 C188.186839,273.322324 192.789211,273.9244 197.043196,275.130587 C201.293106,276.340842 204.935886,278.045369 207.975611,280.246202 C211.011261,282.455171 213.368474,285.107562 215.045212,288.215578 C216.719913,291.329696 217.490031,294.781464 217.357604,298.587156 C217.269998,301.062585 216.815669,303.247146 215.994617,305.153043 C215.169491,307.054872 214.055061,308.682106 212.64929,310.04288 C211.239444,311.399585 209.601416,312.42881 207.733166,313.122419 C205.86288,313.816027 203.84183,314.161814 201.663903,314.161814 C200.333514,314.161814 198.960341,314.027567 197.550495,313.752972 C196.14065,313.486512 194.74914,313.049193 193.380042,312.441015 L193.049991,311.446368 Z" id="Path" fill="#574939"></path>
                <path d="M257.242787,356.364112 C262.433953,341.088459 267.828853,328.141783 273.431563,317.513915 C279.032236,306.888081 284.65532,298.269846 290.300814,291.657176 C295.942234,285.048575 301.506234,280.266543 306.992815,277.307012 C312.479397,274.345447 317.670562,272.868733 322.56835,272.868733 C325.954424,272.868733 329.195846,273.517592 332.296692,274.813277 C335.393462,276.115063 338.121473,278.120629 340.474611,280.838108 C342.831824,283.555588 344.657289,287.056174 345.961192,291.3419 C347.261021,295.627626 347.80703,300.761547 347.595146,306.735528 C347.531988,308.547859 347.340477,311.009049 347.022651,314.117065 C346.702787,317.227115 346.321803,320.699224 345.88581,324.531359 C345.451855,328.367562 344.960854,332.396998 344.420956,336.623737 C343.876984,340.848442 343.385983,345.014159 342.939803,349.116821 C342.493624,353.225586 342.100416,357.118741 341.762216,360.800357 C341.419941,364.484007 341.206019,367.653044 341.110264,370.307468 C340.945239,375.018309 341.006359,378.852477 341.2977,381.80794 C341.587004,384.769505 342.157461,387.104585 343.000924,388.829452 C343.848461,390.546183 345.019937,391.725928 346.505164,392.358515 C347.998541,392.99517 349.828081,393.310446 352.00397,393.310446 C355.151674,393.310446 358.433843,392.873127 361.848441,391.994421 C365.265075,391.125885 368.726531,389.901392 372.226697,388.331112 L373.787306,393.039918 C371.546222,394.791228 368.730606,396.571015 365.344532,398.383346 C361.954383,400.195677 358.403283,401.855455 354.697345,403.36268 C350.98122,404.869905 347.297693,406.092364 343.634539,407.030058 C339.97546,407.965717 336.752374,408.433546 333.97343,408.433546 C330.707559,408.433546 328.169022,407.556874 326.353744,405.807598 C324.540503,404.058323 323.218264,401.672392 322.387025,398.653874 C321.555787,395.63739 321.074973,392.104259 320.942545,388.05855 C320.814192,384.012841 320.828453,379.668128 320.989404,375.018309 C321.187027,369.402319 321.586347,363.607335 322.189403,357.63132 C322.792458,351.653271 323.415887,345.919308 324.061726,340.425361 C324.705529,334.931414 325.304509,329.907331 325.856631,325.344976 C326.412827,320.786688 326.736766,317.121345 326.830484,314.344878 C327.066816,307.64271 325.940162,302.616593 323.458671,299.262458 C320.975142,295.91646 317.527948,294.240409 313.113012,294.240409 C309.66378,294.240409 305.941543,295.719158 301.936115,298.676654 C297.934761,301.636185 293.921184,305.696132 289.901494,310.856496 C285.877729,316.020928 281.961944,322.118985 278.150064,329.150668 C274.334109,336.184384 270.864504,343.789666 267.737173,351.970582 C264.607804,360.153532 261.951101,368.710745 259.765026,377.644257 C257.576913,386.579802 256.081498,395.515347 255.28897,404.448859 L235.883219,406.804279 L234.438739,406.714781 C235.049943,399.591567 235.734493,391.725928 236.486274,383.121931 C237.242131,374.519968 238.046884,365.389155 238.896459,355.727457 C239.746033,346.069827 240.642467,336.003354 241.585759,325.528039 C242.524977,315.054758 243.474382,304.382141 244.429899,293.514256 C245.383378,282.646371 246.355194,271.691023 247.347383,260.642108 C248.337534,249.593193 249.30935,238.682593 250.262829,227.904206 C251.212234,217.131921 252.141265,206.579313 253.045848,196.256551 C253.952468,185.933789 254.808155,176.062584 255.625132,166.642937 C255.735149,165.1947 256.201702,163.943764 257.026828,162.884028 C257.845843,161.830394 258.888965,160.986267 260.152122,160.349612 C261.415278,159.717025 262.837348,159.249196 264.418331,158.946123 C266.001351,158.647119 267.63938,158.494566 269.334454,158.494566 C272.962973,158.494566 276.736144,159.460736 280.658041,161.391041 C278.840725,173.707164 277.204734,185.014402 275.758216,195.304619 C274.307624,205.598905 272.991496,215.136526 271.805759,223.919518 C270.622059,232.708613 269.550413,240.899699 268.588785,248.507015 C267.627156,256.116365 266.736834,263.404337 265.91782,270.377032 C265.098806,277.349727 264.332762,284.159698 263.617653,290.796777 C262.898468,297.439957 262.183359,304.188907 261.458063,311.037526 C260.734804,317.892247 259.985059,325.017495 259.212904,332.407168 C258.442786,339.804978 257.601361,347.758081 256.700852,356.27258 L257.242787,356.364112 Z" id="Path" fill="#574939"></path>
                <path d="M404.987271,343.773394 C404.842619,347.882158 405.017831,352.047875 405.50272,356.27258 C405.991684,360.499319 406.831072,364.575538 408.024958,368.497171 C409.216808,372.422871 410.73667,376.092283 412.582508,379.499303 C414.426309,382.912425 416.653132,385.88416 419.254827,388.418576 C421.858559,390.95706 424.810678,392.948387 428.117295,394.396624 C431.421876,395.846896 435.101328,396.571015 439.149541,396.571015 C443.568551,396.571015 447.484336,395.619083 450.905045,393.719288 C454.329829,391.815425 457.320658,389.297282 459.879568,386.156721 C462.438479,383.016161 464.589919,379.426077 466.335927,375.380368 C468.077861,371.336693 469.50808,367.152669 470.628622,362.834399 C471.743052,358.524264 472.576328,354.252777 473.118263,350.024004 C473.654086,345.799299 473.984136,341.904109 474.110452,338.340468 C474.261216,334.176785 474.090078,329.996829 473.603152,325.800601 C473.110113,321.604373 472.272763,317.558664 471.078876,313.665508 C469.882952,309.768284 468.365127,306.119213 466.517252,302.706091 C464.665301,299.299071 462.444591,296.337506 459.842896,293.831567 C457.241201,291.329696 454.285007,289.348539 450.97839,287.902335 C447.677884,286.452063 443.998432,285.727945 439.94207,285.727945 C435.529171,285.727945 431.615424,286.663604 428.192677,288.534922 C424.769931,290.408275 421.777065,292.91218 419.222229,296.050706 C416.663319,299.191267 414.507803,302.783385 412.769944,306.82706 C411.021899,310.872769 409.589642,315.038486 408.473175,319.326246 C407.356708,323.611972 406.527507,327.881426 405.983535,332.140709 C405.4416,336.391856 405.113586,340.274842 404.987271,343.773394 Z M383.008348,352.379424 C383.224308,346.281367 384.073882,340.093812 385.561147,333.814725 C387.054524,327.537672 389.138732,321.453854 391.823958,315.563269 C394.511222,309.68082 397.773018,304.154329 401.611383,298.995999 C405.449749,293.831567 409.823938,289.322096 414.738024,285.453349 C419.65211,281.592738 425.079608,278.545743 431.024593,276.308297 C436.96754,274.076954 443.38519,272.958231 450.279579,272.958231 C458.017431,272.958231 464.807916,274.589532 470.655108,277.848067 C476.496188,281.108636 481.349153,285.410634 485.211967,290.752028 C489.076818,296.097489 491.931144,302.179274 493.781057,309.00145 C495.626896,315.821592 496.425537,322.796321 496.174943,329.921569 C495.965096,336.019627 495.113484,342.209216 493.626219,348.486268 C492.138954,354.763321 490.034372,360.845106 487.318586,366.731623 C484.600762,372.616105 481.32063,378.142597 477.484302,383.302961 C473.643899,388.467393 469.26971,392.980931 464.361736,396.841542 C459.445613,400.706222 454.016077,403.757284 448.077205,405.988628 C442.13222,408.222006 435.710496,409.340729 428.818143,409.340729 C421.078254,409.340729 414.28777,407.709427 408.44669,404.448859 C402.601535,401.18829 397.762831,396.886291 393.930577,391.546932 C390.094249,386.20147 387.254184,380.119685 385.406308,373.297509 C383.56047,366.477367 382.759792,359.504672 383.008348,352.379424 Z" id="Shape" fill="#574939"></path>
                <path d="M217.017366,92.9963881 C231.242138,108.015752 245.707317,145.832656 245.707317,145.832656 C216.797333,157.402286 166.489071,148.877617 160.246633,99.6578748 C151.915913,34.0274842 149.733912,27.2236146 140.977385,0 C140.977385,0 222.182046,25.7591045 235.693746,32.6972209 C248.912067,39.476682 300.913366,70.5120908 255.606796,141.256062 C254.630906,142.77956 240.167764,108.121522 217.017366,92.9963881 Z" id="Path" fill="#C2CD23"></path>
                <path d="M206.174594,194.478798 C218.386465,197.666142 238.083556,212.561429 238.083556,212.561429 C226.867949,227.861491 198.094468,239.648763 178.965797,216.202364 C153.454111,184.941177 150.125083,182.128097 136.802857,170.865608 C136.802857,170.865608 187.127417,158.040975 196.354572,157.276175 C205.384103,156.527648 242.306981,155.829971 241.722262,207.016632 C241.712075,208.11298 223.035696,194.844926 206.174594,194.478798 Z" id="Path" fill="#0079C1"></path>
                <path d="M318.662751,102.861491 C307.241372,109.632815 291.665838,130.41462 291.665838,130.41462 C307.461406,142.622938 339.991759,146.188614 352.501083,116.924855 C369.189009,77.9078665 371.731621,74.0960723 381.922441,58.8407593 C381.922441,58.8407593 327.305186,60.4862991 317.750019,62.3881281 C308.404698,64.2594465 270.868578,74.275068 286.372805,125.858366 C286.702856,126.968953 301.724231,108.129659 318.662751,102.861491 Z" id="Path" fill="#D31145"></path>
                <path d="M337.89329,204.612394 C321.254259,215.093811 283.288258,221.600711 283.288258,221.600711 C277.803715,192.572901 295.005053,147.325643 342.10449,150.565871 C404.905777,154.871938 411.659589,154.088832 438.682988,150.944203 C438.682988,150.944203 399.710537,221.775638 390.750275,233.070672 C381.993749,244.125689 343.465439,286.812089 285.745302,231.650911 C284.498444,230.467099 319.512326,223.376429 337.89329,204.612394 Z" id="Path" fill="#6F2A8E"></path>
            </g>
            <g id="FOOD-RESCUE" transform="translate(0.000000, 444.554544)" fill="#574939">
                <polygon id="Path" points="0 1.17021277 0 52.6595745 10.6315359 52.6595745 10.6315359 31.8222375 29.5898693 31.8222375 29.5898693 22.9135209 10.6315359 22.9135209 10.6315359 10.5319149 30.3333333 10.5319149 30.3333333 1.17021277"></polygon>
                <path d="M46.0728446,27.5 C46.0728446,18.1818182 52.5952052,9.6969697 62.4545874,9.6969697 C72.389811,9.6969697 78.7604887,17.8030303 78.7604887,27.5 C78.7604887,36.8939394 72.389811,45.3030303 62.378746,45.3030303 C52.6710466,45.3030303 46.0728446,36.969697 46.0728446,27.5 Z M35,27.5 C35,43.1818182 46.3762102,55 62.4545874,55 C77.6228677,55 89.8333333,42.8787879 89.8333333,27.5 C89.8333333,12.1212121 78.3812817,0 62.5304288,0 C47.3621485,0 35,12.1212121 35,27.5 Z" id="Shape"></path>
                <path d="M106.739511,27.5 C106.739511,18.1818182 113.261872,9.6969697 123.121254,9.6969697 C133.056478,9.6969697 139.427155,17.8030303 139.427155,27.5 C139.427155,36.8939394 133.056478,45.3030303 123.045413,45.3030303 C113.337713,45.3030303 106.739511,36.969697 106.739511,27.5 Z M95.6666667,27.5 C95.6666667,43.1818182 107.042877,55 123.121254,55 C138.289534,55 150.5,42.8787879 150.5,27.5 C150.5,12.1212121 139.047948,0 123.197095,0 C108.028815,0 95.6666667,12.1212121 95.6666667,27.5 Z" id="Shape"></path>
                <path d="M157.5,52.6595745 L175.277778,52.6595745 C190.680077,52.6595745 204.166667,43.4488675 204.166667,26.9148936 C204.166667,10.6074125 191.676245,1.17021277 175.431034,1.17021277 L157.5,1.17021277 L157.5,52.6595745 Z M168.457854,10.6829101 L175.047893,10.6829101 C185.316092,10.6829101 192.978927,15.8922443 192.978927,26.9148936 C192.978927,37.4090597 185.622605,43.1468771 175.047893,43.1468771 L168.457854,43.1468771 L168.457854,10.6829101 Z" id="Shape"></path>
                <path d="M256.679558,30.9162663 C263.331492,29.104324 267.430939,23.5175017 267.430939,16.8737131 C267.430939,5.32258065 258.303867,1.17021277 247.39779,1.17021277 L231,1.17021277 L231,52.6595745 L242.060773,52.6595745 L242.060773,32.4262183 L245.541436,32.4262183 L259.850829,52.6595745 L273,52.6595745 L256.679558,30.9162663 Z M256.060773,17.3266987 C256.060773,21.8565546 252.58011,24.4989705 248.016575,24.4989705 L242.060773,24.4989705 L242.060773,9.85243651 L247.939227,9.85243651 C250.491713,9.85243651 252.502762,10.5319149 253.972376,11.8153741 C255.364641,13.1743308 256.060773,14.9862732 256.060773,17.3266987 Z" id="Shape"></path>
                <polygon id="Path" points="276.5 1.17021277 276.5 52.6595745 308 52.6595745 308 43.2978723 287.276316 43.2978723 287.276316 30.5387783 306.492823 30.5387783 306.492823 21.6300618 287.276316 21.6300618 287.276316 10.5319149 307.171053 10.5319149 307.171053 1.17021277"></polygon>
                <path d="M349.036017,15.1515152 C348.591102,5.60606061 341.991525,0 332.79661,0 C324.491525,0 316.705508,5.22727273 316.705508,14.469697 C316.705508,22.1969697 321.302966,27.6515152 330.497881,30.7575758 C334.724576,32.1969697 339.618644,34.2424242 339.618644,39.5454545 C339.618644,43.4090909 336.726695,46.2121212 332.944915,46.2121212 C331.832627,46.2121212 330.794492,45.9848485 329.682203,45.4545455 C326.864407,44.3181818 325.826271,41.0606061 325.455508,38.2575758 L315,38.2575758 C315.741525,48.6363636 322.637712,55 332.79661,55 C335.614407,55 338.135593,54.5454545 340.360169,53.6363636 C346.144068,50.9848485 350,45.6060606 350,38.9393939 C350,29.469697 343.919492,24.5454545 335.688559,21.7424242 C332.351695,20.6060606 326.938559,18.7878788 326.938559,14.3181818 C326.938559,10.9090909 329.459746,8.78787879 332.722458,8.78787879 C336.430085,8.78787879 338.728814,11.5151515 339.025424,15.1515152 L349.036017,15.1515152 Z" id="Path"></path>
                <path d="M383.895803,0 C368.472504,0 357,11.7424242 357,27.3484848 C357,42.6515152 367.560781,55 383.667873,55 C396.128075,55 405.701158,48.1060606 409.5,35.9848485 L397.419682,35.9848485 C395.52026,42.0454545 390.353835,45.7575758 383.97178,45.7575758 C374.09479,45.7575758 368.092619,36.7424242 368.092619,27.4242424 C368.092619,18.1060606 373.486975,9.24242424 383.819826,9.24242424 C389.594067,9.24242424 395.140376,12.4242424 396.887844,18.1818182 L408.588278,18.1818182 C406.081042,6.66666667 395.368307,0 383.895803,0 Z" id="Path"></path>
                <path d="M435.787091,55 C449.139692,55 455,45.9773936 455,32.5199468 L455,1.17021277 L444.466281,1.17021277 L444.466281,33.5139628 C444.466281,39.5545213 442.834297,45.6715426 435.712909,45.6715426 C429.11079,45.6715426 427.1079,39.2486702 427.1079,33.5139628 L427.1079,1.17021277 L416.5,1.17021277 L416.5,32.6728723 C416.5,45.2892287 422.063584,55 435.787091,55 Z" id="Path"></path>
                <polygon id="Path" points="465.5 1.17021277 465.5 52.6595745 497 52.6595745 497 43.2978723 476.276316 43.2978723 476.276316 30.5387783 495.492823 30.5387783 495.492823 21.6300618 476.276316 21.6300618 476.276316 10.5319149 496.171053 10.5319149 496.171053 1.17021277"></polygon>
            </g>
        </g>
    </g>
</svg>